<?xml version="1.0" standalone="no"?>
<!DOCTYPE svg PUBLIC "-//W3C//DTD SVG 1.1//EN" "http://www.w3.org/Graphics/SVG/1.1/DTD/svg11.dtd" >
<svg xmlns="http://www.w3.org/2000/svg">
<metadata></metadata>
<defs>
<font id="sf_ui_displaybold" horiz-adv-x="1326" >
<font-face units-per-em="2048" ascent="1638" descent="-410" />
<missing-glyph horiz-adv-x="440" />
<glyph horiz-adv-x="0" />
<glyph horiz-adv-x="682" />
<glyph unicode=" "  horiz-adv-x="440" />
<glyph unicode="&#x09;" horiz-adv-x="440" />
<glyph unicode="&#xa0;" horiz-adv-x="440" />
<glyph unicode="!" horiz-adv-x="648" d="M160 132q0 66 47 112q48 45 116 45t116 -45q47 -46 47 -112t-47 -111q-48 -46 -116 -46t-116 46q-47 45 -47 111zM173 1443h300l-24 -968h-252z" />
<glyph unicode="&#x22;" horiz-adv-x="929" d="M107 868v575h250v-575h-250zM570 868v575h250v-575h-250z" />
<glyph unicode="#" horiz-adv-x="1271" d="M23 385l41 216h208l52 260h-199l41 214h201l75 369h220l-73 -369h234l74 369h222l-74 -369h217l-40 -214h-220l-53 -260h210l-40 -216h-212l-77 -385h-222l77 385h-234l-78 -385h-220l76 385h-206zM475 582h262l61 297h-263z" />
<glyph unicode="$" d="M93 412h286q5 -78 65 -131t155 -63v390l-106 25q-370 86 -370 403q0 184 126 296q125 113 350 131v137h141v-138q210 -19 336 -133q125 -113 128 -286h-278q-2 71 -54 124t-132 64v-373l107 -21q384 -84 384 -406q0 -190 -128 -305q-127 -114 -363 -134v-129h-141v128 q-236 14 -370 125q-135 112 -136 296zM412 1061q0 -134 187 -174v345q-82 -5 -134 -52q-53 -48 -53 -119zM740 217q98 6 153 54t55 128q0 143 -208 184v-366z" />
<glyph unicode="%" horiz-adv-x="1621" d="M44 1112q0 171 89 271q88 100 240 100t241 -100q88 -100 88 -271q0 -172 -89 -273q-89 -102 -240 -102t-240 102q-89 101 -89 273zM146 0l1054 1443h256l-1053 -1443h-257zM268 1111q0 -92 28 -145q28 -54 77 -54t77 54q28 53 28 146q0 196 -105 196q-49 0 -77 -52 q-28 -53 -28 -145zM917 354q0 171 89 271q88 100 240 100t241 -100q88 -100 88 -271q0 -172 -89 -273q-89 -102 -240 -102t-240 102q-89 101 -89 273zM1141 353q0 -92 28 -145q28 -54 77 -54t77 54q28 53 28 146q0 196 -105 196q-49 0 -77 -52q-28 -53 -28 -145z" />
<glyph unicode="&#x26;" horiz-adv-x="1437" d="M67 378q0 237 267 384l65 35q-179 185 -179 330t116 240q117 95 293 95q177 0 290 -92q112 -93 112 -238q0 -216 -292 -375l274 -296q52 92 52 273v76h243v-93q0 -267 -122 -436l269 -281h-327l-111 120q-170 -146 -447 -146q-229 0 -366 110t-137 294zM340 401 q0 -97 72 -156t188 -59q172 0 264 100l-331 358q-12 -5 -40 -21q-153 -97 -153 -222zM470 1112q0 -89 134 -219q184 96 184 219q0 69 -44 113q-44 43 -114 43t-115 -44t-45 -112z" />
<glyph unicode="'" horiz-adv-x="466" d="M107 868v575h250v-575h-250z" />
<glyph unicode="(" horiz-adv-x="710" d="M132 600q0 485 280 843h269q-98 -113 -167 -323q-81 -246 -81 -518q0 -451 245 -879h-276q-270 339 -270 877z" />
<glyph unicode=")" horiz-adv-x="710" d="M28 1443h268q281 -357 281 -843q0 -540 -272 -877h-275q245 428 245 879q0 272 -81 518q-69 209 -166 323z" />
<glyph unicode="*" horiz-adv-x="994" d="M105 973l271 111l-271 110l99 174l233 -182l-41 293h200l-40 -293l232 182l99 -174l-270 -110l270 -111l-99 -173l-231 179l39 -289h-200l39 289l-231 -179z" />
<glyph unicode="+" d="M123 451v255h408v432h262v-432h408v-255h-408v-437h-262v437h-408z" />
<glyph unicode="," horiz-adv-x="578" d="M88 -271l83 541h274l-136 -541h-221z" />
<glyph unicode="-" horiz-adv-x="905" d="M123 451v255h657v-255h-657z" />
<glyph unicode="." horiz-adv-x="569" d="M123 149q0 68 47 114q47 47 114 47q68 0 114 -47q47 -46 47 -114q0 -67 -47 -114t-114 -47t-114 47t-47 114z" />
<glyph unicode="/" horiz-adv-x="687" d="M0 -293l415 1737h272l-420 -1737h-267z" />
<glyph unicode="0" horiz-adv-x="1333" d="M82 724q0 349 157 551q156 201 427 201t427 -201t156 -550q0 -350 -155 -553q-156 -204 -428 -204t-428 203q-156 202 -156 553zM389 724q0 -244 74 -380q73 -134 203 -134t203 134q73 135 73 380q0 243 -74 377q-73 133 -202 133t-202 -133q-75 -135 -75 -377z" />
<glyph unicode="1" horiz-adv-x="983" d="M88 912v272l373 259h300v-1443h-299v1166h-6z" />
<glyph unicode="2" horiz-adv-x="1235" d="M84 1004v5q0 205 148 335q149 131 385 131q227 0 371 -118q142 -117 142 -299q0 -123 -80 -245q-57 -87 -199 -228l-352 -339v-6h651v-240h-1049v203l544 524q110 110 150 177q41 67 41 142q0 82 -64 138q-66 56 -165 56q-105 0 -174 -66q-69 -65 -69 -165v-5h-280z" />
<glyph unicode="3" horiz-adv-x="1290" d="M78 413h289q7 -92 78 -147q72 -55 190 -55q113 0 185 58t72 149q0 99 -70 156q-70 56 -192 56h-178v218h175q103 0 167 56t64 145t-60 141q-62 53 -173 53q-105 0 -170 -57t-71 -152h-278q8 201 153 321t379 120q226 0 365 -106q140 -106 140 -279q0 -131 -83 -223 q-81 -90 -215 -114v-6q163 -14 258 -106q96 -93 96 -242q0 -193 -159 -313q-158 -118 -409 -118q-243 0 -393 123q-149 121 -160 322z" />
<glyph unicode="4" horiz-adv-x="1327" d="M71 257v257q176 336 579 929h426v-944h188v-242h-188v-257h-287v257h-718zM336 490h459v739h-6q-310 -454 -453 -731v-8z" />
<glyph unicode="5" horiz-adv-x="1280" d="M114 413h279q13 -92 86 -149q74 -57 179 -57q118 0 193 75q74 74 74 192q0 120 -74 196t-191 76q-173 0 -253 -133h-270l71 830h918v-240h-681l-33 -395h6q96 158 321 158q207 0 341 -137q133 -136 133 -347q0 -229 -154 -372q-155 -142 -403 -142q-232 0 -384 125 q-151 124 -158 320z" />
<glyph unicode="6" horiz-adv-x="1317" d="M83 710q0 357 163 562q161 204 442 204q206 0 353 -111t177 -288h-297q-22 72 -86 116t-149 44q-152 0 -236 -137q-85 -139 -80 -382h6q44 107 145 170q103 65 239 65q206 0 341 -135q136 -136 136 -341q0 -223 -156 -366q-156 -144 -398 -144q-323 0 -479 266 q-121 185 -121 477zM417 471q0 -110 76 -187q76 -76 187 -76q110 0 187 76q76 75 76 184q0 112 -74 185q-75 73 -188 73t-188 -73q-76 -73 -76 -182z" />
<glyph unicode="7" horiz-adv-x="1172" d="M63 1203v240h1032v-243l-602 -1200h-317l621 1197v6h-734z" />
<glyph unicode="8" horiz-adv-x="1336" d="M82 391q0 142 94 244q94 101 245 126v6q-126 29 -203 119q-78 89 -78 208q0 166 148 273q148 108 379 108q232 0 379 -108q147 -107 147 -274q0 -117 -77 -207q-77 -89 -203 -119v-6q152 -26 245 -127q94 -102 94 -244q0 -188 -162 -305q-163 -117 -423 -117 q-262 0 -424 118q-161 117 -161 305zM397 413q0 -98 75 -161q76 -64 195 -64t194 64q75 63 75 161t-75 161q-75 64 -194 64t-195 -64q-75 -63 -75 -161zM439 1057q0 -87 64 -143t164 -56t164 56q64 57 64 143q0 87 -64 144q-64 56 -164 56t-164 -57q-64 -56 -64 -143z" />
<glyph unicode="9" horiz-adv-x="1321" d="M78 967q0 222 157 366q157 143 399 143q327 0 481 -264q121 -186 121 -478q0 -359 -160 -562q-161 -204 -446 -204q-207 0 -355 112q-148 111 -178 288h298q22 -73 87 -117q66 -44 153 -44q151 0 234 136q84 138 78 384h-6q-40 -108 -140 -171q-104 -65 -244 -65 q-205 0 -341 135q-138 136 -138 341zM373 976q0 -111 75 -184q75 -74 188 -74t188 73q76 74 76 183q0 110 -76 186q-76 75 -186 75q-111 0 -188 -75t-77 -184z" />
<glyph unicode=":" horiz-adv-x="569" d="M123 149q0 68 47 114q47 47 114 47q68 0 114 -47q47 -46 47 -114q0 -67 -47 -114t-114 -47t-114 47t-47 114zM123 864q0 68 47 114q47 47 114 47q68 0 114 -47q47 -46 47 -114q0 -67 -47 -114t-114 -47t-114 47t-47 114z" />
<glyph unicode=";" horiz-adv-x="569" d="M54 -271l82 541h276l-137 -541h-221zM123 864q0 68 47 114q47 47 114 47q68 0 114 -47q47 -46 47 -114q0 -67 -47 -114t-114 -47t-114 47t-47 114z" />
<glyph unicode="&#x3c;" d="M186 466v225l953 506v-291l-657 -319v-10l657 -309v-291z" />
<glyph unicode="=" d="M138 220v251h1048v-251h-1048zM138 687v251h1048v-251h-1048z" />
<glyph unicode="&#x3e;" d="M186 -22v291l656 308v10l-656 320v290l953 -505v-226z" />
<glyph unicode="?" horiz-adv-x="1093" d="M53 1038q4 189 130 301q130 117 356 117q213 0 345 -108q130 -107 130 -279q0 -213 -214 -339q-100 -58 -135 -104t-35 -120v-53h-265l-2 58q-10 116 33 193q42 73 147 135q97 58 132 104q36 46 36 117q0 72 -52 118q-53 46 -138 46q-86 0 -139 -51q-53 -50 -58 -135 h-271zM338 132q0 66 48 112q47 45 115 45t116 -45q48 -46 48 -112t-48 -111q-48 -46 -116 -46t-115 46q-48 45 -48 111z" />
<glyph unicode="@" horiz-adv-x="1810" d="M79 615q0 371 236 603q235 231 610 231q357 0 581 -205q226 -206 226 -538q0 -237 -105 -377q-106 -141 -288 -141q-94 0 -159 42q-66 43 -82 115h-14q-63 -154 -241 -154q-156 0 -251 116q-96 117 -96 307q0 182 94 296q93 113 243 113q174 0 237 -142h14v120h203v-535 q0 -113 95 -113q75 0 120 89q46 92 46 249q0 272 -173 436q-172 163 -457 163q-289 0 -472 -189q-183 -190 -183 -491q0 -311 192 -491q187 -176 501 -176q178 0 273 35v-160q-125 -37 -288 -37q-385 0 -621 223q-241 228 -241 611zM723 608q0 -109 45 -171q44 -62 123 -62 q81 0 128 63q47 62 47 170t-47 171q-47 62 -127 62q-79 0 -124 -62q-45 -61 -45 -171z" />
<glyph unicode="A" horiz-adv-x="1413" d="M27 0l501 1443h355l502 -1443h-321l-110 350h-507l-110 -350h-310zM512 576h377l-185 591h-7z" />
<glyph unicode="B" horiz-adv-x="1319" d="M119 0v1443h637q203 0 322 -97t119 -263q0 -118 -78 -207q-77 -89 -193 -106v-8q148 -11 244 -108q96 -99 96 -241q0 -191 -134 -302t-365 -111h-648zM421 225h269q268 0 268 212q0 207 -275 207h-262v-419zM421 843h226q121 0 187 51q66 50 66 142q0 87 -58 135 q-58 47 -164 47h-257v-375z" />
<glyph unicode="C" horiz-adv-x="1459" d="M74 722q0 347 185 547q183 199 498 199q262 0 439 -150q178 -152 195 -393h-294q-21 133 -114 213q-94 80 -226 80q-171 0 -273 -133q-102 -135 -102 -362q0 -231 101 -364q101 -134 275 -134q134 0 225 74t115 202h294q-25 -241 -197 -384q-172 -142 -438 -142 q-316 0 -499 199q-184 200 -184 548z" />
<glyph unicode="D" horiz-adv-x="1438" d="M119 0v1443h556q326 0 506 -186q182 -188 182 -530q0 -343 -182 -535q-181 -192 -506 -192h-556zM421 250h218q203 0 309 121q107 122 107 355q0 226 -108 347t-308 121h-218v-944z" />
<glyph unicode="E" horiz-adv-x="1174" d="M119 0v1443h956v-249h-654v-348h617v-232h-617v-364h654v-250h-956z" />
<glyph unicode="F" horiz-adv-x="1123" d="M119 0v1443h945v-249h-643v-387h587v-239h-587v-568h-302z" />
<glyph unicode="G" horiz-adv-x="1489" d="M74 726q0 346 185 544q184 198 503 198q252 0 427 -136t207 -355h-303q-33 113 -120 177q-88 64 -210 64q-179 0 -280 -129t-101 -359q0 -234 106 -369q105 -135 286 -135q148 0 242 83q93 83 98 217l1 23h-314v220h608v-163q0 -295 -169 -463q-170 -168 -471 -168 q-324 0 -509 200q-186 200 -186 551z" />
<glyph unicode="H" horiz-adv-x="1494" d="M119 0v1443h302v-586h650v586h302v-1443h-302v608h-650v-608h-302z" />
<glyph unicode="I" horiz-adv-x="542" d="M119 0v1443h302v-1443h-302z" />
<glyph unicode="J" horiz-adv-x="1143" d="M30 425h293q2 -88 54 -141q53 -53 138 -53q194 0 194 223v989h302v-991q0 -229 -131 -356q-129 -126 -362 -126q-221 0 -355 124q-133 124 -133 331z" />
<glyph unicode="K" horiz-adv-x="1353" d="M119 0v1443h302v-658h9l542 658h336l-534 -640l571 -803h-361l-428 603l-135 -162v-441h-302z" />
<glyph unicode="L" horiz-adv-x="1112" d="M119 0v1443h302v-1193h631v-250h-933z" />
<glyph unicode="M" horiz-adv-x="1768" d="M119 0v1443h350l410 -1023h8l410 1023h350v-1443h-269v974h-8l-392 -960h-190l-392 960h-8v-974h-269z" />
<glyph unicode="N" horiz-adv-x="1463" d="M119 0v1443h252l674 -940h8v940h289v-1443h-250l-675 945h-9v-945h-289z" />
<glyph unicode="O" horiz-adv-x="1541" d="M74 721q0 345 188 546q187 201 508 201t508 -201q188 -201 188 -546q0 -344 -188 -545t-508 -201q-321 0 -508 201q-188 201 -188 545zM382 721q0 -226 105 -360q105 -133 283 -133q177 0 282 133q105 134 105 360q0 227 -105 361t-282 134t-282 -134 q-106 -134 -106 -361z" />
<glyph unicode="P" horiz-adv-x="1280" d="M119 0v1443h602q223 0 361 -136q139 -136 139 -358q0 -221 -143 -358q-143 -136 -372 -136h-285v-455h-302zM421 691h219q130 0 202 67t72 190t-72 190q-71 66 -201 66h-220v-513z" />
<glyph unicode="Q" horiz-adv-x="1541" d="M74 721q0 344 188 546q187 201 508 201q320 0 508 -201q187 -202 187 -546q0 -391 -230 -581l183 -276h-293l-103 151q-114 -40 -252 -40q-322 0 -508 199q-188 201 -188 547zM382 721q0 -227 105 -361q105 -135 283 -135q53 0 103 14l-158 236h273l63 -86 q106 122 106 332q0 227 -105 363q-105 135 -282 135q-178 0 -283 -135q-105 -136 -105 -363z" />
<glyph unicode="R" horiz-adv-x="1316" d="M119 0v1443h596q247 0 386 -123q136 -122 136 -337q0 -141 -69 -250q-70 -112 -193 -160l304 -573h-342l-269 528h-247v-528h-302zM421 747h265q114 0 178 61q63 61 63 169q0 105 -66 168q-66 62 -178 62h-262v-460z" />
<glyph unicode="S" horiz-adv-x="1293" d="M65 411h291q10 -88 94 -143q83 -54 204 -54q120 0 196 52q75 51 75 131q0 70 -56 113t-187 72l-188 41q-397 85 -397 403q0 198 155 321q154 121 397 121q250 0 400 -119q148 -118 152 -315h-283q-7 91 -81 144q-73 52 -187 52q-112 0 -180 -49q-69 -49 -69 -129 q0 -66 56 -108q55 -40 180 -69l175 -37q217 -46 316 -144q99 -97 99 -262q0 -210 -158 -333q-158 -124 -427 -124q-261 0 -415 116q-155 117 -162 320z" />
<glyph unicode="T" horiz-adv-x="1242" d="M47 1194v249h1147v-249h-423v-1194h-302v1194h-422z" />
<glyph unicode="U" horiz-adv-x="1449" d="M119 510v933h302v-903q0 -141 79 -222q80 -84 224 -84q143 0 223 84q79 81 79 222v903h302v-933q0 -240 -164 -387q-165 -148 -440 -148q-276 0 -441 148q-164 147 -164 387z" />
<glyph unicode="V" horiz-adv-x="1389" d="M27 1443h338l330 -1132h7l330 1132h329l-485 -1443h-364z" />
<glyph unicode="W" horiz-adv-x="1977" d="M42 1443h313l227 -1045h8l270 1045h255l270 -1045h8l228 1045h313l-383 -1443h-285l-274 986h-9l-274 -986h-285z" />
<glyph unicode="X" horiz-adv-x="1404" d="M42 0l458 723v8l-455 712h355l306 -520h8l309 520h337l-472 -718v-7l466 -718h-344l-316 505h-8l-318 -505h-326z" />
<glyph unicode="Y" horiz-adv-x="1362" d="M27 1443h329l323 -616h7l324 616h324l-503 -904v-539h-302v539z" />
<glyph unicode="Z" horiz-adv-x="1292" d="M88 0v197l733 989v8h-716v249h1077v-196l-730 -990v-7h750v-250h-1114z" />
<glyph unicode="[" horiz-adv-x="755" d="M147 -240v1684h574v-215h-294v-1255h307v-214h-587z" />
<glyph unicode="\" horiz-adv-x="687" d="M0 1444h272l415 -1738h-266z" />
<glyph unicode="]" horiz-adv-x="755" d="M20 -26h307v1255h-294v215h574v-1684h-587v214z" />
<glyph unicode="^" horiz-adv-x="978" d="M34 823l326 611h259l324 -611h-263l-184 377h-17l-189 -377h-256z" />
<glyph unicode="_" horiz-adv-x="857" d="M-46 -107h949v-218h-949v218z" />
<glyph unicode="`" horiz-adv-x="1010" d="M256 1573h273l221 -310h-231z" />
<glyph unicode="a" horiz-adv-x="1147" d="M53 317q0 149 112 234q110 83 322 96l275 17v73q0 79 -51 122q-51 42 -142 42q-78 0 -131 -38q-52 -37 -63 -98h-267q6 158 136 256q131 99 337 99q212 0 340 -100t128 -265v-755h-282v170h-6q-44 -85 -138 -135q-91 -48 -199 -48q-161 0 -265 91q-106 93 -106 239z M344 332q0 -61 48 -96q47 -36 127 -36q103 0 172 57q71 58 71 147v81l-231 -16q-187 -12 -187 -137z" />
<glyph unicode="b" horiz-adv-x="1252" d="M106 0v1512h292v-599h6q97 201 340 201q209 0 329 -150q120 -151 120 -413t-120 -413t-328 -151q-249 0 -346 201h-6v-188h-287zM396 550q1 -148 69 -237q69 -90 181 -90q113 0 181 89q67 89 67 239q0 149 -68 238q-67 89 -180 89q-112 0 -181 -90q-68 -90 -69 -238z" />
<glyph unicode="c" horiz-adv-x="1142" d="M57 551q0 261 146 415q145 154 391 154q218 0 355 -121q133 -117 144 -304h-272q-12 88 -70 140q-60 55 -153 55q-113 0 -179 -90q-66 -91 -66 -249q0 -160 66 -250q66 -89 180 -89q193 0 223 188h272q-13 -192 -147 -305q-135 -114 -351 -114q-248 0 -393 152 q-146 154 -146 418z" />
<glyph unicode="d" horiz-adv-x="1249" d="M57 552q0 258 123 410t329 152q118 0 208 -55q87 -53 129 -146h6v599h292v-1512h-288v188h-5q-41 -92 -131 -146q-92 -55 -212 -55q-206 0 -328 152q-123 153 -123 413zM356 551q0 -151 68 -240q67 -88 181 -88q113 0 181 89t68 238t-68 239q-68 89 -181 89 q-114 0 -181 -88q-68 -89 -68 -239z" />
<glyph unicode="e" horiz-adv-x="1164" d="M57 546q0 263 143 418q144 156 386 156q238 0 378 -148q141 -148 141 -399v-90h-760v-18q0 -119 71 -193q71 -73 186 -73q83 0 143 37q61 36 82 100h269q-24 -160 -161 -257q-137 -98 -338 -98q-251 0 -396 151q-144 151 -144 414zM348 664h475q-4 108 -68 173t-166 65 q-100 0 -167 -66q-66 -66 -74 -172z" />
<glyph unicode="f" horiz-adv-x="734" d="M27 880v221h149v98q0 159 82 229q83 70 274 70q68 0 135 -10v-203q-37 7 -80 7q-66 0 -95 -26t-30 -84v-81h206v-221h-200v-880h-292v880h-149z" />
<glyph unicode="g" horiz-adv-x="1244" d="M57 554q0 259 122 409q122 151 331 151q117 0 208 -55q89 -53 133 -146h5v188h288v-1076q0 -196 -148 -312q-147 -116 -396 -116q-218 0 -356 88q-140 89 -151 237h288q14 -54 77 -87q62 -32 149 -32q112 0 178 54q67 54 67 146v197h-6q-40 -89 -131 -141t-210 -52 q-203 0 -324 146q-124 149 -124 401zM356 553q0 -149 67 -235q66 -85 180 -85t182 86t68 233q0 149 -68 237q-68 89 -182 89q-113 0 -180 -88t-67 -237z" />
<glyph unicode="h" horiz-adv-x="1247" d="M106 0v1512h287v-608h6q95 213 356 213q183 0 290 -111t107 -302v-704h-292v643q0 108 -59 170q-60 61 -164 61q-107 0 -173 -69t-66 -180v-625h-292z" />
<glyph unicode="i" horiz-adv-x="500" d="M92 1374q0 65 46 109q46 43 111 43q66 0 112 -43q46 -44 46 -109t-46 -109t-112 -44q-65 0 -111 44t-46 109zM103 0v1101h292v-1101h-292z" />
<glyph unicode="j" horiz-adv-x="500" d="M-73 -157q6 -1 37 -1q76 0 108 30q32 29 32 98v1131h292v-1138q0 -339 -391 -339q-60 0 -78 3v216zM93 1374q0 65 46 109q46 43 111 43q66 0 112 -43q46 -44 46 -109t-46 -109t-112 -44q-65 0 -111 44t-46 109z" />
<glyph unicode="k" horiz-adv-x="1126" d="M106 0v1512h292v-856h4l381 445h332l-424 -473l444 -628h-336l-322 452l-79 -85v-367h-292z" />
<glyph unicode="l" horiz-adv-x="505" d="M106 0v1512h292v-1512h-292z" />
<glyph unicode="m" horiz-adv-x="1811" d="M98 0v1101h282v-200h6q35 100 120 158q84 58 194 58q119 0 199 -58q80 -59 108 -167h6q38 104 130 164q92 61 212 61q162 0 262 -101q99 -102 99 -268v-748h-292v675q0 200 -184 200q-86 0 -139 -58q-53 -57 -53 -151v-666h-282v686q0 88 -48 139q-48 50 -133 50 q-86 0 -141 -60q-54 -59 -54 -153v-662h-292z" />
<glyph unicode="n" horiz-adv-x="1227" d="M98 0v1101h282v-197h6q97 213 354 213q183 0 288 -109q104 -109 104 -302v-706h-292v645q0 110 -56 169q-57 60 -160 60q-105 0 -169 -68q-65 -68 -65 -178v-628h-292z" />
<glyph unicode="o" horiz-adv-x="1201" d="M57 551q0 263 147 417q147 152 396 152q250 0 396 -152q147 -153 147 -417q0 -267 -146 -419q-145 -151 -397 -151q-251 0 -397 152t-146 418zM353 551q0 -164 66 -255q65 -90 181 -90t181 90q65 91 65 255q0 162 -66 254q-65 91 -180 91q-116 0 -181 -91 q-66 -92 -66 -254z" />
<glyph unicode="p" horiz-adv-x="1244" d="M98 -346v1447h288v-188h6q44 93 135 147t207 54q210 0 331 -150q121 -151 121 -413t-120 -413q-121 -151 -328 -151q-247 0 -342 198h-6v-531h-292zM389 550q0 -148 68 -238q68 -89 180 -89q114 0 182 89t68 239q0 148 -68 238q-69 89 -182 89q-112 0 -180 -90t-68 -238z " />
<glyph unicode="q" horiz-adv-x="1244" d="M57 552q0 259 122 411q122 151 331 151q118 0 209 -55q89 -53 132 -146h5v188h288v-1447h-292v531h-6q-40 -90 -130 -143q-93 -55 -211 -55q-206 0 -327 152q-121 153 -121 413zM356 551q0 -151 67 -240q66 -88 180 -88t182 89t68 238t-68 238q-69 90 -182 90t-180 -88 q-67 -89 -67 -239z" />
<glyph unicode="r" horiz-adv-x="759" d="M98 0v1101h282v-197h6q57 210 262 210q49 0 82 -11v-259q-39 18 -105 18q-111 0 -173 -65t-62 -181v-616h-292z" />
<glyph unicode="s" horiz-adv-x="1078" d="M52 333h285q22 -145 210 -145q87 0 137 32q50 31 50 85q0 43 -31 68q-32 25 -107 43l-203 46q-314 71 -314 315q0 155 126 249t335 94q204 0 329 -96q125 -95 128 -253h-270q-5 65 -56 104q-51 38 -135 38q-79 0 -127 -32q-48 -33 -48 -86q0 -81 147 -115l207 -45 q166 -38 237 -107q72 -69 72 -192q0 -160 -134 -258q-134 -97 -351 -97q-215 0 -347 97q-129 94 -140 255z" />
<glyph unicode="t" horiz-adv-x="741" d="M27 880v221h149v245h292v-245h204v-221h-204v-535q0 -126 131 -126q43 0 73 5v-216q-60 -12 -141 -12q-191 0 -273 70t-82 231v583h-149z" />
<glyph unicode="u" horiz-adv-x="1227" d="M93 395v706h292v-645q0 -110 59 -170q57 -59 160 -59t167 68t64 179v627h292v-1101h-282v199h-6q-87 -215 -346 -215q-181 0 -289 110q-111 111 -111 301z" />
<glyph unicode="v" horiz-adv-x="1106" d="M8 1101h312l234 -840h6l233 840h305l-380 -1101h-328z" />
<glyph unicode="w" horiz-adv-x="1654" d="M19 1101h294l170 -822h6l199 822h280l200 -822h6l171 822h288l-293 -1101h-310l-203 784h-6l-201 -784h-307z" />
<glyph unicode="x" horiz-adv-x="1104" d="M22 0l348 549l-345 552h329l202 -375h6l201 375h317l-346 -545l344 -556h-319l-212 385h-6l-211 -385h-308z" />
<glyph unicode="y" horiz-adv-x="1136" d="M13 1101h320l238 -864h6l239 864h308l-381 -1123q-70 -210 -184 -295q-113 -85 -320 -85q-89 0 -111 4v226q15 -3 66 -3q162 0 195 126l10 42z" />
<glyph unicode="z" horiz-adv-x="1059" d="M77 0v168l553 704v5h-545v224h883v-186l-521 -685v-6h534v-224h-904z" />
<glyph unicode="{" horiz-adv-x="837" d="M121 476v269q95 0 131 46q37 45 37 163v191q0 197 102 285t331 88h104v-212h-44q-123 0 -169 -45q-46 -44 -46 -162v-242q0 -213 -207 -232v-30q207 -18 207 -248v-266q0 -118 47 -162q46 -45 168 -45h44v-212h-104q-228 0 -330 90q-103 90 -103 292v225q0 117 -36 162 q-37 45 -132 45z" />
<glyph unicode="|" horiz-adv-x="603" d="M164 -293v1736h273v-1736h-273z" />
<glyph unicode="}" horiz-adv-x="837" d="M10 -126h45q122 0 168 45q46 44 46 162v266q0 230 209 248v30q-209 19 -209 232v242q0 118 -46 162q-46 45 -168 45h-45v212h105q229 0 331 -87q101 -88 101 -286v-191q0 -118 37 -163q37 -46 132 -46v-269q-95 0 -132 -45t-37 -162v-225q0 -202 -102 -292t-330 -90h-105 v212z" />
<glyph unicode="~" horiz-adv-x="1199" d="M77 528q-9 195 78 310q86 114 243 114q130 0 260 -130q78 -81 137 -81q111 0 116 178h228q9 -195 -78 -309q-86 -115 -243 -115q-128 0 -257 129q-82 82 -140 82q-111 0 -116 -178h-228z" />
<glyph unicode="&#xa2;" d="M114 703q0 222 120 372q118 149 319 186v187h242v-183q174 -26 289 -139q116 -115 127 -274h-272q-17 86 -86 139q-68 52 -165 52q-124 0 -202 -92q-79 -94 -79 -248q0 -156 79 -252q78 -93 201 -93q216 0 252 184h272q-14 -162 -128 -272q-113 -109 -288 -135v-182h-242 v187q-202 38 -320 187q-119 151 -119 376z" />
<glyph unicode="&#xa3;" d="M105 0v232q134 20 219 111q84 91 84 215q0 32 -7 76h-292v207h224q-59 148 -59 244q0 187 147 291q146 104 411 104q207 0 330 -50v-236q-117 51 -292 51q-139 0 -216 -54q-77 -53 -77 -150q0 -76 45 -200h414v-207h-349q4 -38 4 -57q0 -102 -52 -192q-48 -82 -124 -129 v-8h714v-248h-1124z" />
<glyph unicode="&#xa5;" d="M10 1443h327l323 -613h9l320 613h327l-425 -763h195v-166h-271v-136h271v-166h-271v-212h-302v212h-271v166h271v136h-271v166h195z" />
<glyph unicode="&#xa8;" horiz-adv-x="1010" d="M160 1390q0 54 39 93q39 38 96 38t96 -38q39 -39 39 -93t-39 -92q-39 -39 -96 -39t-96 39q-39 38 -39 92zM579 1390q0 54 39 93q39 38 96 38t96 -38q39 -39 39 -93t-39 -92q-39 -39 -96 -39t-96 39q-39 38 -39 92z" />
<glyph unicode="&#xa9;" horiz-adv-x="1697" d="M59 650q0 331 230 561q230 228 559 228q330 0 559 -228q229 -229 229 -561q0 -330 -229 -560q-229 -229 -559 -229q-329 0 -559 229q-230 230 -230 560zM223 650q0 -263 182 -444t443 -181t443 181q181 181 181 444q0 264 -181 445t-443 181q-261 0 -443 -181t-182 -445z M481 652q0 183 103 290t278 107q149 0 246 -81q92 -79 107 -208h-188q-12 58 -53 93q-44 36 -109 36q-84 0 -133 -63t-49 -174q0 -113 49 -177q48 -63 133 -63q137 0 162 122h188q-14 -129 -107 -205q-94 -77 -244 -77q-177 0 -280 107t-103 293z" />
<glyph unicode="&#xab;" horiz-adv-x="1356" d="M112 562v8l348 411h271l-346 -409v-10l346 -411h-275zM623 562v8l348 411h271l-346 -409v-10l346 -411h-275z" />
<glyph unicode="&#xad;" horiz-adv-x="905" d="M123 451v255h657v-255h-657z" />
<glyph unicode="&#xae;" horiz-adv-x="1133" d="M79 1011q0 200 142 342q143 141 345 141t344 -141t142 -342q0 -200 -142 -341t-344 -141t-344 141q-143 141 -143 341zM210 1011q0 -148 104 -251q104 -104 252 -104t252 104q103 103 103 251q0 149 -103 252q-104 104 -252 104t-252 -104q-104 -103 -104 -252zM371 799 v443h232q74 0 120 -39q45 -39 45 -103q0 -109 -93 -133l116 -168h-143l-96 151h-62v-151h-119zM490 1037h86q66 0 66 56q0 55 -64 55h-88v-111z" />
<glyph unicode="&#xb4;" horiz-adv-x="1010" d="M258 1263l221 310h273l-263 -310h-231z" />
<glyph unicode="&#xb8;" horiz-adv-x="1010" d="M335 -325q40 -14 111 -14q107 0 107 55q0 31 -29 43q-28 13 -96 13h-56v101l63 139l145 -12l-49 -116q88 0 136 -42q49 -41 49 -117q0 -86 -64 -136q-64 -49 -177 -50q-88 0 -140 16v120z" />
<glyph unicode="&#xbb;" horiz-adv-x="1356" d="M112 151l346 411v10l-346 409h271l348 -411v-8l-344 -411h-275zM623 151l346 411v10l-346 409h271l348 -411v-8l-344 -411h-275z" />
<glyph unicode="&#x2c6;" horiz-adv-x="1011" d="M129 1253l266 318h219l266 -318h-223l-149 189h-7l-148 -189h-224z" />
<glyph unicode="&#x2da;" horiz-adv-x="1032" d="M294 1428q0 89 66 153q65 64 155 64q91 0 156 -64t65 -153t-65 -153t-156 -64q-90 0 -155 64q-66 64 -66 153zM413 1428q0 -41 30 -71q31 -29 72 -29q42 0 72 29q30 30 30 71t-30 71t-72 30q-41 0 -72 -30q-30 -30 -30 -71z" />
<glyph unicode="&#x2dc;" horiz-adv-x="1011" d="M155 1275q0 126 61 200q59 71 154 71q80 0 157 -67q77 -68 104 -68q63 0 65 122h158q0 -125 -62 -201q-59 -74 -152 -74q-76 0 -153 68q-76 68 -105 68q-67 0 -69 -119h-158z" />
<glyph unicode="&#x401;" horiz-adv-x="1205" d="M129 0v1443h956v-249h-654v-348h617v-232h-617v-364h654v-250h-956zM263 1692q0 54 39 93q39 38 96 38t96 -38q39 -39 39 -93t-39 -92q-39 -39 -96 -39t-96 39q-39 38 -39 92zM682 1692q0 54 39 93q39 38 96 38t96 -38q39 -39 39 -93t-39 -92q-39 -39 -96 -39t-96 39 q-39 38 -39 92z" />
<glyph unicode="&#x402;" horiz-adv-x="1743" d="M62 1194v249h1148v-249h-423v-409h8q130 122 348 122q234 0 369 -136q130 -130 130 -342q0 -225 -136 -359q-137 -137 -373 -137q-105 0 -146 17v237q36 -12 118 -12q109 0 171 62q63 63 63 174q0 110 -69 174q-69 65 -187 65q-97 0 -179 -46q-81 -45 -117 -117v-487 h-302v1194h-423z" />
<glyph unicode="&#x403;" horiz-adv-x="1134" d="M140 0v1443h930v-250h-627v-1193h-303zM498 1538l232 310h273l-277 -310h-228z" />
<glyph unicode="&#x404;" horiz-adv-x="1479" d="M86 722q0 348 185 551q184 202 498 202q253 0 428 -144q175 -145 204 -375h-297q-29 119 -119 191q-92 71 -216 71q-148 0 -248 -99q-101 -100 -119 -270h566v-234h-568q13 -180 116 -286q100 -104 254 -104q127 0 216 66q88 65 119 181h297q-35 -232 -205 -367 q-171 -137 -428 -137q-315 0 -499 202q-184 203 -184 552z" />
<glyph unicode="&#x405;" horiz-adv-x="1314" d="M75 411h291q10 -88 94 -143q83 -54 204 -54q120 0 196 52q75 51 75 131q0 70 -56 113t-187 72l-188 41q-397 85 -397 403q0 198 155 321q154 121 397 121q250 0 400 -119q148 -118 152 -315h-283q-7 91 -81 144q-73 52 -187 52q-112 0 -180 -49q-69 -49 -69 -129 q0 -66 56 -108q55 -40 180 -69l175 -37q217 -46 316 -144q99 -97 99 -262q0 -210 -158 -333q-158 -124 -427 -124q-261 0 -415 116q-155 117 -162 320z" />
<glyph unicode="&#x406;" horiz-adv-x="628" d="M129 0v1443h302v-1443h-302z" />
<glyph unicode="&#x407;" horiz-adv-x="628" d="M-63 1692q0 54 39 93q39 38 96 38t96 -38q39 -39 39 -93t-39 -92q-39 -39 -96 -39t-96 39q-39 38 -39 92zM130 0v1443h302v-1443h-302zM356 1692q0 54 39 93q39 38 96 38t96 -38q39 -39 39 -93t-39 -92q-39 -39 -96 -39t-96 39q-39 38 -39 92z" />
<glyph unicode="&#x408;" horiz-adv-x="1163" d="M40 425h293q2 -88 54 -141q53 -53 138 -53q194 0 194 223v989h302v-991q0 -229 -131 -356q-129 -126 -362 -126q-221 0 -355 124q-133 124 -133 331z" />
<glyph unicode="&#x409;" horiz-adv-x="2226" d="M59 1v264q37 -8 67 -8q102 0 147 95q35 76 44 238l43 853h993v-484h279q229 0 372 -132q143 -133 143 -347q0 -215 -138 -348q-138 -132 -361 -132h-597v1194h-421l-35 -624q-15 -283 -108 -425q-105 -158 -319 -158q-71 0 -109 14zM1353 241h215q129 0 200 61 q71 63 71 178q0 116 -72 179q-71 62 -201 62h-213v-480z" />
<glyph unicode="&#x40a;" horiz-adv-x="2227" d="M140 0v1443h302v-576h620v576h302v-576h280q230 0 372 -118q143 -118 143 -309q0 -197 -138 -319q-138 -121 -362 -121h-597v623h-620v-623h-302zM1364 241h230q124 0 192 53q68 52 68 148q0 91 -68 140q-68 50 -193 50h-229v-391z" />
<glyph unicode="&#x40b;" horiz-adv-x="1753" d="M62 1194v249h1148v-249h-423v-408h8q127 121 339 121q234 0 365 -144q128 -139 128 -376v-387h-302v369q0 133 -66 207t-187 74q-94 0 -173 -47q-76 -45 -112 -116v-487h-302v1194h-423z" />
<glyph unicode="&#x40c;" horiz-adv-x="1377" d="M140 0v1443h302v-611h8l533 611h341l-598 -683l645 -760h-377l-544 634h-8v-634h-302zM578 1538l232 310h273l-277 -310h-228z" />
<glyph unicode="&#x40e;" horiz-adv-x="1336" d="M37 1443h320l317 -802h8l302 802h318l-442 -1030q-98 -228 -206 -323q-118 -103 -305 -103q-101 0 -125 15v246q30 -9 88 -9q136 0 204 105zM331 1838h176q1 -76 49 -122q47 -46 122 -46t122 46q48 46 49 122h176q0 -140 -97 -225q-95 -85 -250 -85t-250 85 q-97 85 -97 225z" />
<glyph unicode="&#x40f;" horiz-adv-x="1521" d="M140 0v1443h302v-1194h635v1194h302v-1443h-478v-285h-283v285h-478z" />
<glyph unicode="&#x410;" horiz-adv-x="1433" d="M37 0l501 1443h355l502 -1443h-321l-110 350h-507l-110 -350h-310zM522 576h377l-185 591h-7z" />
<glyph unicode="&#x411;" horiz-adv-x="1318" d="M140 0v1443h959v-249h-657v-293h280q227 0 368 -123q142 -123 142 -323q0 -204 -139 -330q-138 -125 -361 -125h-592zM442 241h215q127 0 196 55q70 55 70 159t-70 161q-69 55 -197 55h-214v-430z" />
<glyph unicode="&#x412;" horiz-adv-x="1351" d="M129 0v1443h637q203 0 322 -97t119 -263q0 -118 -78 -207q-77 -89 -193 -106v-8q148 -11 244 -108q96 -99 96 -241q0 -191 -134 -302t-365 -111h-648zM431 225h269q268 0 268 212q0 207 -275 207h-262v-419zM431 843h226q121 0 187 51q66 50 66 142q0 87 -58 135 q-58 47 -164 47h-257v-375z" />
<glyph unicode="&#x413;" horiz-adv-x="1134" d="M140 0v1443h930v-250h-627v-1193h-303z" />
<glyph unicode="&#x414;" horiz-adv-x="1561" d="M24 250h101q72 49 104 141q28 81 38 237l50 815h1023v-1193h180v-535h-273v285h-949v-285h-274v535zM449 250h589v945h-455l-38 -590q-17 -255 -96 -347v-8z" />
<glyph unicode="&#x415;" horiz-adv-x="1205" d="M129 0v1443h956v-249h-654v-348h617v-232h-617v-364h654v-250h-956z" />
<glyph unicode="&#x416;" horiz-adv-x="2064" d="M17 0l590 754l-556 689h342l481 -611h8v611h294v-611h8l482 611h336l-552 -684l596 -759h-370l-492 634h-8v-634h-294v634h-8l-495 -634h-362z" />
<glyph unicode="&#x417;" horiz-adv-x="1286" d="M72 410h289q7 -93 83 -148t199 -55q116 0 188 59q71 58 71 153q0 94 -70 148q-70 53 -194 53h-194v235h191q108 0 176 55q67 55 67 144t-64 140t-175 51q-112 0 -181 -56t-75 -151h-279q7 204 154 323q146 119 389 119q232 0 375 -108q144 -109 144 -283q0 -122 -75 -213 t-197 -117v-8q146 -16 232 -112q86 -95 86 -240q0 -190 -161 -313q-162 -123 -411 -123q-248 0 -403 122q-155 123 -165 325z" />
<glyph unicode="&#x418;" horiz-adv-x="1541" d="M140 0v1443h301v-977h12l655 977h291v-1443h-301v976h-12l-655 -976h-291z" />
<glyph unicode="&#x419;" horiz-adv-x="1541" d="M140 0v1443h301v-977h12l655 977h291v-1443h-301v976h-12l-655 -976h-291zM417 1838h176q1 -76 49 -122q47 -46 122 -46t122 46q48 46 49 122h176q0 -140 -97 -225q-95 -85 -250 -85t-250 85q-97 85 -97 225z" />
<glyph unicode="&#x41a;" horiz-adv-x="1393" d="M140 0v1443h302v-611h8l533 611h341l-598 -683l645 -760h-377l-544 634h-8v-634h-302z" />
<glyph unicode="&#x41b;" horiz-adv-x="1480" d="M44 1v264q37 -8 67 -8q97 0 142 85q40 77 49 248l43 853h993v-1443h-302v1194h-421l-35 -624q-16 -290 -113 -431q-104 -152 -314 -152q-69 0 -109 14z" />
<glyph unicode="&#x41c;" horiz-adv-x="1810" d="M129 0v1443h350l410 -1023h8l410 1023h350v-1443h-269v974h-8l-392 -960h-190l-392 960h-8v-974h-269z" />
<glyph unicode="&#x41d;" horiz-adv-x="1536" d="M129 0v1443h302v-586h650v586h302v-1443h-302v608h-650v-608h-302z" />
<glyph unicode="&#x41e;" horiz-adv-x="1566" d="M84 721q0 345 188 546q187 201 508 201t508 -201q188 -201 188 -546q0 -344 -188 -545t-508 -201q-321 0 -508 201q-188 201 -188 545zM392 721q0 -226 105 -360q105 -133 283 -133q177 0 282 133q105 134 105 360q0 227 -105 361t-282 134t-282 -134 q-106 -134 -106 -361z" />
<glyph unicode="&#x41f;" horiz-adv-x="1521" d="M140 0v1443h1239v-1443h-301v1193h-635v-1193h-303z" />
<glyph unicode="&#x420;" horiz-adv-x="1310" d="M129 0v1443h602q223 0 361 -136q139 -136 139 -358q0 -221 -143 -358q-143 -136 -372 -136h-285v-455h-302zM431 691h219q130 0 202 67t72 190t-72 190q-71 66 -201 66h-220v-513z" />
<glyph unicode="&#x421;" horiz-adv-x="1479" d="M86 722q0 348 185 551q184 202 498 202q253 0 428 -144q175 -145 204 -375h-297q-29 119 -119 191q-92 71 -216 71q-171 0 -272 -133q-102 -134 -102 -362q0 -231 101 -364q101 -134 274 -134q127 0 216 66q88 65 119 181h297q-35 -232 -205 -367q-171 -137 -428 -137 q-315 0 -499 202q-184 203 -184 552z" />
<glyph unicode="&#x422;" horiz-adv-x="1278" d="M57 1194v249h1147v-249h-423v-1194h-302v1194h-422z" />
<glyph unicode="&#x423;" horiz-adv-x="1336" d="M37 1443h320l317 -802h8l302 802h318l-442 -1030q-98 -228 -206 -323q-118 -103 -305 -103q-101 0 -125 15v246q30 -9 88 -9q136 0 204 105z" />
<glyph unicode="&#x424;" horiz-adv-x="1781" d="M77 725q0 270 182 431q178 158 482 168v149h297v-149q304 -9 482 -167q182 -161 182 -433q0 -271 -182 -432q-179 -158 -482 -168v-154h-297v154q-304 9 -482 167q-182 162 -182 434zM380 725q0 -160 99 -256q98 -95 266 -102v715q-168 -8 -266 -103q-99 -96 -99 -254z M1035 367q166 8 265 102q99 97 99 255q0 159 -99 256q-99 94 -265 102v-715z" />
<glyph unicode="&#x425;" horiz-adv-x="1425" d="M52 0l458 723v8l-455 712h355l306 -520h8l309 520h337l-472 -718v-7l466 -718h-344l-316 505h-8l-318 -505h-326z" />
<glyph unicode="&#x426;" horiz-adv-x="1600" d="M140 0v1443h302v-1194h635v1194h302v-1194h180v-534h-273v285h-1146z" />
<glyph unicode="&#x427;" horiz-adv-x="1463" d="M122 1033v410h302v-381q0 -143 76 -224t212 -81q106 0 188 44q81 45 119 122v520h302v-1443h-302v621h-8q-139 -123 -358 -123q-239 0 -385 146q-146 147 -146 389z" />
<glyph unicode="&#x428;" horiz-adv-x="2008" d="M140 0v1443h302v-1194h410v1194h302v-1194h410v1194h302v-1443h-1726z" />
<glyph unicode="&#x429;" horiz-adv-x="2087" d="M140 0v1443h302v-1194h410v1194h302v-1194h410v1194h302v-1194h180v-534h-273v285h-1633z" />
<glyph unicode="&#x42a;" horiz-adv-x="1579" d="M79 1195v248h637v-484h280q229 0 372 -132q143 -133 143 -347q0 -215 -139 -348q-138 -132 -361 -132h-597v1195h-335zM716 241h215q130 0 200 61q71 62 71 178t-71 179q-71 62 -201 62h-214v-480z" />
<glyph unicode="&#x42b;" horiz-adv-x="1839" d="M140 0v1443h302v-484h280q229 0 372 -132q143 -133 143 -347q0 -215 -139 -348q-138 -132 -361 -132h-597zM442 241h215q130 0 200 61q71 62 71 178t-71 179q-71 62 -201 62h-214v-480zM1384 0v1443h302v-1443h-302z" />
<glyph unicode="&#x42c;" horiz-adv-x="1305" d="M140 0v1443h302v-484h280q229 0 372 -132q143 -133 143 -347q0 -215 -139 -348q-138 -132 -361 -132h-597zM442 241h215q130 0 200 61q71 62 71 178t-71 179q-71 62 -201 62h-214v-480z" />
<glyph unicode="&#x42d;" horiz-adv-x="1479" d="M75 472h297q32 -116 122 -181q91 -66 219 -66q152 0 252 104q100 106 113 286h-569v234h566q-16 170 -116 270q-98 99 -245 99q-126 0 -219 -71q-94 -72 -122 -191h-297q28 230 207 375q177 144 431 144q312 0 495 -202q182 -203 182 -551q0 -349 -182 -552 q-181 -202 -495 -202q-258 0 -431 137q-173 136 -208 367z" />
<glyph unicode="&#x42e;" horiz-adv-x="2102" d="M140 0v1443h302v-586h213q35 291 215 457q179 166 461 166q315 0 499 -204t184 -554t-184 -555q-183 -204 -499 -204q-288 0 -469 173q-179 171 -209 472h-211v-608h-302zM953 722q0 -230 102 -366q102 -137 275 -137q172 0 274 137q102 136 102 366t-102 366t-274 136 q-171 0 -274 -136t-103 -366z" />
<glyph unicode="&#x42f;" horiz-adv-x="1380" d="M54 0l380 563q-142 44 -226 153q-86 111 -86 261q0 210 142 337q143 129 382 129h592v-1443h-300v521h-207l-343 -521h-334zM431 976q0 -109 68 -169q68 -61 190 -61h249v460h-249q-121 0 -189 -61q-69 -62 -69 -169z" />
<glyph unicode="&#x430;" horiz-adv-x="1149" d="M63 317q0 149 112 234q110 83 322 96l275 17v73q0 79 -51 122q-51 42 -142 42q-78 0 -131 -38q-52 -37 -63 -98h-267q6 158 136 256q131 99 337 99q212 0 340 -100t128 -265v-755h-282v170h-6q-44 -85 -138 -135q-91 -48 -199 -48q-161 0 -265 91q-106 93 -106 239z M354 332q0 -61 48 -96q47 -36 127 -36q103 0 172 57q71 58 71 147v81l-231 -16q-187 -12 -187 -137z" />
<glyph unicode="&#x431;" horiz-adv-x="1244" d="M77 634q0 459 153 671q145 201 456 212l125 4q220 8 289 46v-228q-45 -42 -271 -48l-118 -4q-201 -7 -294 -110q-86 -96 -114 -320h8q106 206 372 206q223 0 356 -142q134 -142 134 -383q0 -260 -146 -411t-397 -151q-267 0 -409 167q-144 169 -144 491zM376 531 q0 -155 65 -240q65 -84 184 -84q118 0 183 84q66 85 66 240q0 148 -66 231q-66 82 -183 82q-118 0 -183 -82q-66 -83 -66 -231z" />
<glyph unicode="&#x432;" horiz-adv-x="1151" d="M108 0v1101h554q170 0 267 -74t97 -204q0 -88 -57 -156q-56 -68 -141 -82v-8q110 -14 178 -84q69 -72 69 -174q0 -146 -108 -232q-110 -87 -295 -87h-564zM394 188h206q183 0 183 148q0 147 -198 147h-191v-295zM394 655h175q172 0 172 130q0 129 -156 129h-191v-259z " />
<glyph unicode="&#x433;" horiz-adv-x="938" d="M108 0v1101h764v-221h-473v-880h-291z" />
<glyph unicode="&#x434;" horiz-adv-x="1328" d="M19 222h85q104 58 122 321l36 558h873v-879h164v-507h-266v285h-748v-285h-266v507zM402 222h443v659h-336l-25 -356q-15 -196 -82 -295v-8z" />
<glyph unicode="&#x435;" horiz-adv-x="1179" d="M67 546q0 263 143 418q144 156 386 156q238 0 378 -148q141 -148 141 -399v-90h-760v-18q0 -119 71 -193q71 -73 186 -73q83 0 143 37q61 36 82 100h269q-24 -160 -161 -257q-137 -98 -338 -98q-251 0 -396 151q-144 151 -144 414zM358 664h475q-4 108 -68 173t-166 65 q-100 0 -167 -66q-66 -66 -74 -172z" />
<glyph unicode="&#x436;" horiz-adv-x="1708" d="M13 0l424 583l-411 518h336l338 -446h8v446h288v-446h8l337 446h333l-406 -511l427 -590h-348l-343 476h-8v-476h-288v476h-8l-344 -476h-343z" />
<glyph unicode="&#x437;" horiz-adv-x="1103" d="M59 345h280q38 -142 210 -142q90 0 140 37q49 37 49 100q0 129 -188 129h-153v192h145q164 0 164 120q0 56 -40 89q-43 34 -122 34q-167 0 -188 -131h-275q16 164 139 258t323 94q215 0 332 -83q115 -82 115 -230q0 -83 -45 -145q-45 -63 -122 -84v-8q206 -52 206 -245 q0 -163 -129 -258t-351 -95q-213 0 -343 98q-131 98 -147 270z" />
<glyph unicode="&#x438;" horiz-adv-x="1254" d="M108 0v1101h286v-697h8l456 697h286v-1101h-286v705h-8l-456 -705h-286z" />
<glyph unicode="&#x439;" horiz-adv-x="1254" d="M108 0v1101h286v-697h8l456 697h286v-1101h-286v705h-8l-456 -705h-286zM276 1587h178q2 -81 48 -132q48 -52 126 -52q77 0 125 52q46 51 48 132h179q0 -148 -97 -238q-97 -91 -255 -91t-255 91q-97 90 -97 238z" />
<glyph unicode="&#x43a;" horiz-adv-x="1153" d="M108 0v1101h291v-446h8l374 446h334l-445 -511l470 -590h-353l-380 476h-8v-476h-291z" />
<glyph unicode="&#x43b;" horiz-adv-x="1215" d="M32 1v247q32 -8 63 -8q74 0 110 86q30 71 38 217l32 558h830v-1101h-291v880h-289l-23 -355q-15 -263 -94 -391q-91 -147 -283 -147q-58 0 -93 14z" />
<glyph unicode="&#x43c;" horiz-adv-x="1565" d="M108 0v1101h377l295 -728h8l294 728h373v-1101h-275v739h-8l-289 -679h-203l-290 679h-8v-739h-274z" />
<glyph unicode="&#x43d;" horiz-adv-x="1241" d="M108 0v1101h291v-425h441v425h291v-1101h-291v454h-441v-454h-291z" />
<glyph unicode="&#x43e;" horiz-adv-x="1226" d="M67 551q0 263 147 417q147 152 396 152q250 0 396 -152q147 -153 147 -417q0 -267 -146 -419q-145 -151 -397 -151q-251 0 -397 152t-146 418zM363 551q0 -164 66 -255q65 -90 181 -90t181 90q65 91 65 255q0 162 -66 254q-65 91 -180 91q-116 0 -181 -91 q-66 -92 -66 -254z" />
<glyph unicode="&#x43f;" horiz-adv-x="1231" d="M108 0v1101h1013v-1101h-291v880h-431v-880h-291z" />
<glyph unicode="&#x440;" horiz-adv-x="1267" d="M108 -346v1447h288v-188h6q44 93 135 147t207 54q210 0 331 -150q121 -151 121 -413t-120 -413q-121 -151 -328 -151q-247 0 -342 198h-6v-531h-292zM399 550q0 -148 68 -238q68 -89 180 -89q114 0 182 89t68 239q0 148 -68 238q-69 89 -182 89q-112 0 -180 -90t-68 -238 z" />
<glyph unicode="&#x441;" horiz-adv-x="1161" d="M69 551q0 261 145 415t390 154q207 0 341 -111q131 -107 152 -282h-274q-18 75 -73 118q-58 45 -142 45q-113 0 -179 -90q-66 -91 -66 -249q0 -160 66 -250q66 -89 180 -89q176 0 216 161h273q-21 -180 -153 -286t-339 -106q-247 0 -391 152q-146 154 -146 418z" />
<glyph unicode="&#x442;" horiz-adv-x="1041" d="M44 880v221h951v-221h-330v-880h-291v880h-330z" />
<glyph unicode="&#x443;" horiz-adv-x="1156" d="M22 1101h320l238 -864h6l239 864h308l-381 -1123q-70 -210 -184 -295q-113 -85 -320 -85q-89 0 -111 4v226q15 -3 66 -3q162 0 195 126l10 42z" />
<glyph unicode="&#x444;" horiz-adv-x="1614" d="M69 551q0 256 163 409q160 151 432 157v339h285v-339q274 -7 433 -156q161 -152 161 -411q0 -256 -162 -409q-161 -151 -432 -157v-330h-285v330q-274 7 -434 157q-161 152 -161 410zM364 551q0 -159 82 -251q80 -90 220 -94v690q-139 -5 -220 -95q-82 -93 -82 -250z M946 206q138 4 219 95q83 93 83 250q0 159 -82 251q-80 89 -220 94v-690z" />
<glyph unicode="&#x445;" horiz-adv-x="1124" d="M32 0l348 549l-345 552h329l202 -375h6l201 375h317l-346 -545l344 -556h-319l-212 385h-6l-211 -385h-308z" />
<glyph unicode="&#x446;" horiz-adv-x="1311" d="M108 0v1101h291v-879h426v879h291v-879h166v-507h-266v285h-908z" />
<glyph unicode="&#x447;" horiz-adv-x="1185" d="M87 757v344h291v-303q0 -96 50 -150q49 -54 134 -54q148 0 222 111v396h291v-1101h-291v480h-8q-107 -129 -305 -129q-175 0 -279 110q-105 110 -105 296z" />
<glyph unicode="&#x448;" horiz-adv-x="1723" d="M108 0v1101h291v-879h316v879h291v-879h316v879h291v-1101h-1505z" />
<glyph unicode="&#x449;" horiz-adv-x="1801" d="M108 0v1101h291v-879h316v879h291v-879h316v879h291v-879h160v-507h-266v285h-1399z" />
<glyph unicode="&#x44a;" horiz-adv-x="1321" d="M44 880v221h576v-320h214q195 0 311 -106q115 -106 115 -285t-115 -284q-116 -106 -311 -106h-505v880h-285zM620 219h168q83 0 133 48q50 47 50 125q0 77 -50 125q-50 47 -133 47h-168v-345z" />
<glyph unicode="&#x44b;" horiz-adv-x="1549" d="M108 0v1101h291v-320h214q195 0 311 -106q115 -106 115 -285t-115 -284q-116 -106 -311 -106h-505zM399 219h168q83 0 133 48q50 47 50 125q0 77 -50 125q-50 47 -133 47h-168v-345zM1148 0v1101h291v-1101h-291z" />
<glyph unicode="&#x44c;" horiz-adv-x="1100" d="M108 0v1101h291v-320h214q195 0 311 -106q115 -106 115 -285t-115 -284q-116 -106 -311 -106h-505zM399 219h168q83 0 133 48q50 47 50 125q0 77 -50 125q-50 47 -133 47h-168v-345z" />
<glyph unicode="&#x44d;" horiz-adv-x="1161" d="M62 372h272q42 -160 221 -160q99 0 164 67q67 69 76 190h-402v192h398q-15 106 -80 168q-63 61 -155 61q-86 0 -145 -45q-56 -43 -75 -118h-273q21 175 153 282q135 111 344 111q243 0 386 -154q144 -154 144 -415q0 -264 -144 -418q-143 -152 -388 -152q-209 0 -342 106 q-133 105 -154 285z" />
<glyph unicode="&#x44e;" horiz-adv-x="1701" d="M108 0v1101h291v-425h165q33 212 172 330q140 119 356 119q249 0 393 -152q145 -154 145 -422q0 -271 -144 -424q-142 -151 -394 -151q-226 0 -366 126t-165 352h-162v-454h-291zM851 551q0 -164 63 -254t177 -90t177 90t63 254q0 163 -63 253q-64 90 -177 90t-177 -90 q-63 -90 -63 -253z" />
<glyph unicode="&#x44f;" horiz-adv-x="1138" d="M47 0l290 402q-114 36 -177 117q-65 84 -65 201q0 175 119 278t319 103h495v-1101h-285v358h-126l-246 -358h-324zM384 720q0 -69 48 -112q49 -44 129 -44h182v319h-182q-81 0 -129 -44q-48 -45 -48 -119z" />
<glyph unicode="&#x451;" horiz-adv-x="1179" d="M67 546q0 263 143 418q144 156 386 156q238 0 378 -148q141 -148 141 -399v-90h-760v-18q0 -119 71 -193q71 -73 186 -73q83 0 143 37q61 36 82 100h269q-24 -160 -161 -257q-137 -98 -338 -98q-251 0 -396 151q-144 151 -144 414zM251 1390q0 54 39 93q39 38 96 38 t96 -38q39 -39 39 -93t-39 -92q-39 -39 -96 -39t-96 39q-39 38 -39 92zM358 664h475q-4 108 -68 173t-166 65q-100 0 -167 -66q-66 -66 -74 -172zM670 1390q0 54 39 93q39 38 96 38t96 -38q39 -39 39 -93t-39 -92q-39 -39 -96 -39t-96 39q-39 38 -39 92z" />
<glyph unicode="&#x452;" horiz-adv-x="1291" d="M47 1242v150h90v165h287v-165h231v-150h-231v-323h12q43 94 137 146q92 52 214 52q182 0 289 -110q108 -111 108 -303v-743q0 -337 -392 -337q-60 0 -78 3v216q6 -1 37 -1q77 0 109 30q32 29 32 98v673q0 109 -60 171q-60 61 -163 61q-106 0 -173 -69t-67 -181v-625h-292 v1242h-90z" />
<glyph unicode="&#x453;" horiz-adv-x="954" d="M108 0v1101h764v-221h-473v-880h-291zM367 1263l221 310h273l-263 -310h-231z" />
<glyph unicode="&#x454;" horiz-adv-x="1161" d="M69 551q0 261 145 415t390 154q207 0 341 -111q131 -107 152 -282h-274q-19 75 -74 118q-58 45 -144 45q-93 0 -157 -61q-65 -62 -79 -168h397v-192h-401q9 -121 76 -190q65 -67 165 -67q177 0 219 160h273q-22 -180 -153 -285q-133 -106 -339 -106q-247 0 -391 152 q-146 154 -146 418z" />
<glyph unicode="&#x455;" horiz-adv-x="1098" d="M62 333h285q22 -145 210 -145q87 0 137 32q50 31 50 85q0 43 -31 68q-32 25 -107 43l-203 46q-314 71 -314 315q0 155 126 249t335 94q204 0 329 -96q125 -95 128 -253h-270q-5 65 -56 104q-51 38 -135 38q-79 0 -127 -32q-48 -33 -48 -86q0 -81 147 -115l207 -45 q166 -38 237 -107q72 -69 72 -192q0 -160 -134 -258q-134 -97 -351 -97q-215 0 -347 97q-129 94 -140 255z" />
<glyph unicode="&#x456;" horiz-adv-x="520" d="M97 1374q0 65 46 109q46 43 111 43q66 0 112 -43q46 -44 46 -109t-46 -109t-112 -44q-65 0 -111 44t-46 109zM108 0v1101h292v-1101h-292z" />
<glyph unicode="&#x457;" horiz-adv-x="527" d="M-85 1390q0 54 39 93q39 38 96 38t96 -38q39 -39 39 -93t-39 -92q-39 -39 -96 -39t-96 39q-39 38 -39 92zM113 0v1101h292v-1101h-292zM334 1390q0 54 39 93q39 38 96 38t96 -38q39 -39 39 -93t-39 -92q-39 -39 -96 -39t-96 39q-39 38 -39 92z" />
<glyph unicode="&#x458;" horiz-adv-x="532" d="M-62 -157q6 -1 37 -1q76 0 108 30q32 29 32 98v1131h292v-1138q0 -339 -391 -339q-60 0 -78 3v216zM104 1374q0 65 46 109q46 43 111 43q66 0 112 -43q46 -44 46 -109t-46 -109t-112 -44q-65 0 -111 44t-46 109z" />
<glyph unicode="&#x459;" horiz-adv-x="1806" d="M32 1v247q32 -8 63 -8q74 0 110 86q30 71 38 217l32 558h830v-320h214q195 0 311 -106q115 -106 115 -285t-115 -284q-116 -106 -311 -106h-505v880h-289l-23 -355q-15 -263 -94 -391q-91 -147 -283 -147q-58 0 -93 14zM1105 219h168q83 0 133 48q49 47 49 125 q0 77 -50 125q-50 47 -132 47h-168v-345z" />
<glyph unicode="&#x45a;" horiz-adv-x="1817" d="M108 0v1101h291v-390h426v390h291v-385h219q193 0 307 -97t114 -261t-114 -261t-307 -97h-510v494h-426v-494h-291zM1116 217h187q76 0 122 40q45 39 45 102t-46 103t-121 40h-187v-285z" />
<glyph unicode="&#x45b;" horiz-adv-x="1291" d="M47 1242v150h90v165h287v-165h231v-150h-231v-323h12q43 94 137 146q92 52 214 52q182 0 289 -110q108 -111 108 -303v-704h-292v643q0 109 -60 171q-60 61 -163 61q-106 0 -173 -69t-67 -181v-625h-292v1242h-90z" />
<glyph unicode="&#x45c;" horiz-adv-x="1153" d="M108 0v1101h291v-446h8l374 446h334l-445 -511l470 -590h-353l-380 476h-8v-476h-291zM482 1263l221 310h273l-263 -310h-231z" />
<glyph unicode="&#x45e;" horiz-adv-x="1156" d="M22 1101h320l238 -864h6l239 864h308l-381 -1123q-70 -210 -184 -295q-113 -85 -320 -85q-89 0 -111 4v226q15 -3 66 -3q162 0 195 126l10 42zM231 1587h178q2 -81 48 -132q48 -52 126 -52q77 0 125 52q46 51 48 132h179q0 -148 -97 -238q-97 -91 -255 -91t-255 91 q-97 90 -97 238z" />
<glyph unicode="&#x45f;" horiz-adv-x="1231" d="M108 0v1101h291v-879h431v879h291v-1101h-373v-285h-266v285h-374z" />
<glyph unicode="&#x490;" horiz-adv-x="1134" d="M140 0v1443h647v285h283v-535h-627v-1193h-303z" />
<glyph unicode="&#x491;" horiz-adv-x="938" d="M108 0v1101h498v285h266v-506h-473v-880h-291z" />
<glyph unicode="&#x2000;" horiz-adv-x="924" />
<glyph unicode="&#x2001;" horiz-adv-x="1848" />
<glyph unicode="&#x2002;" horiz-adv-x="924" />
<glyph unicode="&#x2003;" horiz-adv-x="1848" />
<glyph unicode="&#x2004;" horiz-adv-x="616" />
<glyph unicode="&#x2005;" horiz-adv-x="462" />
<glyph unicode="&#x2006;" horiz-adv-x="308" />
<glyph unicode="&#x2007;" horiz-adv-x="308" />
<glyph unicode="&#x2008;" horiz-adv-x="231" />
<glyph unicode="&#x2009;" horiz-adv-x="369" />
<glyph unicode="&#x200a;" horiz-adv-x="102" />
<glyph unicode="&#x2010;" horiz-adv-x="905" d="M123 451v255h657v-255h-657z" />
<glyph unicode="&#x2011;" horiz-adv-x="905" d="M123 451v255h657v-255h-657z" />
<glyph unicode="&#x2012;" horiz-adv-x="905" d="M123 451v255h657v-255h-657z" />
<glyph unicode="&#x2013;" horiz-adv-x="1024" d="M0 454v262h1024v-262h-1024z" />
<glyph unicode="&#x2014;" horiz-adv-x="2048" d="M0 454v262h2048v-262h-2048z" />
<glyph unicode="&#x2018;" horiz-adv-x="593" d="M90 1443h272l103 -563h-239z" />
<glyph unicode="&#x2019;" horiz-adv-x="593" d="M127 880l102 563h273l-137 -563h-238z" />
<glyph unicode="&#x201a;" horiz-adv-x="593" d="M92 -428l102 591h273l-128 -591h-247z" />
<glyph unicode="&#x201c;" horiz-adv-x="1062" d="M99 1443h272l103 -563h-239zM550 1443h273l102 -563h-238z" />
<glyph unicode="&#x201d;" horiz-adv-x="1062" d="M135 880l103 563h272l-136 -563h-239zM587 880l102 563h273l-137 -563h-238z" />
<glyph unicode="&#x201e;" horiz-adv-x="1062" d="M92 -428l102 591h268l-123 -591h-247zM566 -428l102 591h268l-123 -591h-247z" />
<glyph unicode="&#x2026;" horiz-adv-x="1665" d="M123 149q0 68 47 114q47 47 114 47q68 0 114 -47q47 -46 47 -114q0 -67 -47 -114t-114 -47t-114 47t-47 114zM672 149q0 68 47 114q47 47 114 47q68 0 114 -47q47 -46 47 -114q0 -67 -47 -114t-114 -47t-114 47t-47 114zM1219 149q0 68 47 114q47 47 114 47q68 0 114 -47 q47 -46 47 -114q0 -67 -47 -114t-114 -47t-114 47t-47 114z" />
<glyph unicode="&#x202f;" horiz-adv-x="369" />
<glyph unicode="&#x2039;" horiz-adv-x="845" d="M112 562v8l348 411h271l-346 -409v-10l346 -411h-275z" />
<glyph unicode="&#x203a;" horiz-adv-x="845" d="M112 151l346 411v10l-346 409h271l348 -411v-8l-344 -411h-275z" />
<glyph unicode="&#x205f;" horiz-adv-x="462" />
<glyph unicode="&#x20ac;" d="M83 488v158h158q-3 38 -3 76q0 24 2 70h-157v158h182q64 249 265 385q198 135 491 135q124 0 203 -23v-249q-82 18 -198 18q-157 0 -272 -68q-117 -69 -171 -198h536v-158h-575q-3 -34 -3 -70q0 -44 4 -76h574v-158h-534q54 -127 169 -195q113 -67 268 -67q142 0 206 16 v-252q-82 -17 -207 -17q-292 0 -489 133q-200 136 -265 382h-184z" />
<glyph unicode="&#x2122;" horiz-adv-x="2273" d="M98 1223v220h831v-220h-286v-660h-260v660h-285zM1081 563v880h304l230 -480h17l232 480h303v-880h-235v553h-17l-228 -483h-127l-226 483h-17v-553h-236z" />
<glyph unicode="&#x25fc;" horiz-adv-x="1100" d="M0 0v1100h1100v-1100h-1100z" />
</font>
</defs>
</svg>
