<?xml version="1.0" encoding="utf-8"?>
<!-- Generator: Adobe Illustrator 20.1.0, SVG Export Plug-In . SVG Version: 6.00 Build 0)  -->
<svg version="1.1" id="Слой_1" xmlns="http://www.w3.org/2000/svg" xmlns:xlink="http://www.w3.org/1999/xlink" x="0px" y="0px"
	 viewBox="0 0 53 66" style="enable-background:new 0 0 53 66;" xml:space="preserve">
<style type="text/css">
	.st0{fill:#00345C;}
	.st1{fill:#FEFE00;}
</style>
<g>
	<path class="st0" d="M53,26.4c0.1,5-1.5,9.5-4,13.7c-2.8,4.7-6.1,9-9.6,13.2c-3.5,4.1-7.2,8-11,11.7c-1.2,1.2-2.5,1.2-3.7,0
		c-6.6-6.4-12.9-13.3-18.1-20.9c-2.2-3.1-4.1-6.4-5.4-10c-1-2.9-1.3-5.9-1.2-9c0.3-5.8,2.2-11,6-15.5c4.3-5.2,9.9-8.4,16.7-9.4
		c13.6-2,26.4,6.6,29.6,20C52.8,22.3,53,24.3,53,26.4z"/>
	<path class="st1" d="M41,39c0.2-1.8,0-3.5-0.5-5.2c-0.8-2.7-2.3-5-4.6-6.8c-0.3-0.2-0.4-0.5-0.3-0.8c0.9-5.7-3.3-11.4-9.1-12.1
		c-1.9-0.2-3.9-0.3-5.7,0.2c-3.7,0.9-6.2,4.2-6.2,8.1c0,3,0,6,0,9c0,1.2,0,2.4,0,3.5c0.1,2.4-0.2,4.8,0.2,7.1
		c-6-3.8-10.3-11.9-8.4-20.8c2-9.4,10.3-16,19.8-16C35.8,5.3,44,12,46,21.4c0.9,4.5,0.4,8.8-1.7,12.9C43.5,36,42.4,37.6,41,39z"/>
	<path class="st1" d="M27.5,29.4c4.2,0,7.1,2.8,8,5.8c1.5,5-2.3,10.1-7.5,10.2c-1.4,0-2.8-0.1-4-0.8c-2.6-1.4-4-3.6-4-6.5
		c0-4.7,0-9.4,0-14.1c0-2.7,2-4.7,4.7-4.7c3-0.1,5.2,1.5,5.8,4.2c0.5,2.1-0.5,4.4-2.3,5.6C27.9,29.2,27.7,29.3,27.5,29.4z"/>
</g>
</svg>
