<?xml version="1.0" encoding="utf-8"?>
<!-- Generator: Adobe Illustrator 16.0.1, SVG Export Plug-In . SVG Version: 6.00 Build 0)  -->
<!DOCTYPE svg PUBLIC "-//W3C//DTD SVG 1.1//EN" "http://www.w3.org/Graphics/SVG/1.1/DTD/svg11.dtd">
<svg version="1.1" id="Слой_1" xmlns="http://www.w3.org/2000/svg" xmlns:xlink="http://www.w3.org/1999/xlink" x="0px" y="0px"
	 width="1000px" height="312.917px" viewBox="0 0 1000 312.917" enable-background="new 0 0 1000 312.917" xml:space="preserve">
<path fill-rule="evenodd" clip-rule="evenodd" fill="#FEF468" d="M192.249,3.908c64.468,12.169,113.362,68.653,120.878,133.936
	c5.425,47.118-7.894,88.534-39.083,124.23c-1.834,0.086-1.586-1.004-1.218-2.16c2.31-37.03-10.618-67.49-39.542-90.869
	c-2.898-2.343-2.458-4.7-2.117-7.456c4.618-37.317-15.075-72.131-49.038-87.2c-17.216-7.639-35.338-7.796-53.481-6.669
	c-35.861,2.227-61.578,29.945-61.632,65.86c-0.066,44.313,0.006,88.625-0.04,132.938c-0.007,6.511,0.892,12.908,2.067,19.683
	c-2.351-0.336-3.709-1.814-5.167-2.922C29.407,257.105,8.395,222.838,1.705,179.927L0,170c0-2,0,0,0-2c0-1.333,0-2.667,0-4
	c0-2.481,0-1.252,0-6c0-4,0-8,0-12c0-2,0,0,0-2c0-1.333,0-2.667,0-4c1.818-8.729,1.238-17.746,3.846-26.442
	c7.537-25.126,19.95-47.235,38.172-66.256C60.591,27.916,82.481,14.14,107.84,5.575c9.87-3.333,20.023-4.461,30.31-5.079
	C140.113,0.378,144.035,0.063,146,0c1.999-0.064,0,0,2,0c4.333,0,8.667,0,13,0c6,0,0,0,6,0C167,0,185.972,2.723,192.249,3.908z"/>
<path fill-rule="evenodd" clip-rule="evenodd" fill="#FFFFFF" d="M1000,155c-6.829,0-13.668-0.215-20.483,0.09
	c-3.439,0.154-5.433-1.106-7.319-3.813c-8.946-12.83-18.132-25.493-27.061-38.335c-1.778-2.557-2.494-2.226-4.6-0.226
	c-5.936,5.639-8.607,12.044-7.671,20.369c0.685,6.086,0.044,12.313,0.179,18.473c0.052,2.404-0.328,3.62-3.186,3.507
	c-5.654-0.224-11.329-0.215-16.984-0.003c-2.835,0.105-3.214-1.116-3.209-3.521c0.059-33.979,0.069-67.958-0.018-101.937
	c-0.008-2.777,0.675-3.789,3.579-3.668c5.321,0.222,10.668,0.257,15.984-0.012c3.112-0.156,3.901,0.786,3.863,3.868
	C932.903,63.783,933,77.775,933,91.768c0,0.933,0,1.865,0,4.161c7.977-9.658,15.117-18.298,22.25-26.943
	c5.614-6.806,11.27-13.579,16.794-20.458c1.483-1.849,3.056-2.636,5.473-2.585C985.008,46.1,992.505,46,1000,46c0,0.333,0,0.667,0,1
	c-4.532,10.041-12.889,17.198-19.463,25.694c-4.674,6.04-9.606,11.903-14.696,17.595c-2.773,3.102-2.759,5.51-0.441,8.715
	c9.153,12.661,18.156,25.432,27.28,38.114c2.912,4.048,5.837,8.043,7.32,12.882C1000,151.667,1000,153.333,1000,155z"/>
<path fill-rule="evenodd" clip-rule="evenodd" fill="#FEF468" d="M168.024,187.973c21.113,0.693,38.173,8.016,50.494,24.105
	c15.42,20.139,18.155,42.44,7.233,65.301c-10.823,22.655-29.715,34.644-54.841,35.491c-28.885,0.973-50.395-12.945-59.299-37.343
	c-2.424-6.641-3.464-13.51-3.462-20.563c0.009-35.484,0.001-70.968,0.005-106.451c0.003-26.18,19.687-43.036,45.716-39.16
	c18.382,2.737,32.027,14.969,35.924,32.202c3.938,17.421-3.332,34.269-19.248,44.615
	C170.012,186.518,169.507,186.909,168.024,187.973z"/>
<path fill-rule="evenodd" clip-rule="evenodd" fill="#FFFFFF" d="M813,83.851c0,6.066,0,10.981,0,15.896
	c0,17.153-0.08,34.307,0.074,51.458c0.028,3.073-0.739,4.034-3.858,3.87c-5.148-0.272-10.325-0.19-15.481-0.024
	c-2.457,0.079-3.074-0.805-3.07-3.146c0.063-34.306,0.065-68.611-0.004-102.916c-0.006-2.479,0.904-2.939,3.18-3.045
	c15.768-0.733,15.758-0.78,24.974,12.067c13.188,18.387,26.389,36.766,39.589,55.145c0.634,0.883,1.315,1.73,2.908,3.817
	c0-3.129,0-4.865,0-6.601c0-19.984,0.078-39.969-0.075-59.951c-0.025-3.392,0.714-4.758,4.351-4.497
	c4.473,0.321,9.007,0.34,13.478-0.004c3.751-0.289,4.738,0.871,4.717,4.65c-0.164,29.642-0.091,59.284-0.091,88.927
	c0,3.83-0.226,7.678,0.066,11.485c0.262,3.414-1.203,3.695-4.22,4.168c-11.11,1.741-18.038-2.339-24.241-11.984
	c-12.043-18.729-25.673-36.438-38.655-54.563C815.715,87.313,814.711,86.079,813,83.851z"/>
<path fill-rule="evenodd" clip-rule="evenodd" fill="#FFFFFF" d="M572.144,135.556c1.573,0.885,3.243,0.413,4.821,0.417
	c15.818,0.045,31.637,0.09,47.454-0.031c2.761-0.021,3.811,0.656,3.638,3.557c-0.296,4.958,1.629,11.461-0.842,14.488
	c-2.582,3.163-9.342,0.943-14.264,0.968c-21.479,0.107-42.96-0.059-64.438,0.141c-3.998,0.037-5.203-0.779-5.392-5.07
	c-0.302-6.879,1.648-12.26,5.857-17.756c15.677-20.474,30.857-41.326,46.217-62.042c1.068-1.44,2.072-2.928,3.694-5.227
	c-3.33,0-5.888,0-8.445,0c-13.82,0-27.643-0.125-41.46,0.086c-3.541,0.055-4.703-0.963-4.324-4.433
	c0.517-4.736-2.033-11.087,1.015-13.815c2.631-2.356,8.844-0.813,13.474-0.821c20.813-0.039,41.628,0.06,62.44-0.092
	c3.474-0.024,4.694,0.534,4.879,4.482c0.353,7.513-1.648,13.522-6.331,19.611c-15.617,20.307-30.608,41.096-45.798,61.729
	C573.504,132.883,572.192,133.819,572.144,135.556z"/>
<path fill-rule="evenodd" clip-rule="evenodd" fill="#FFFFFF" d="M674,91.271c0,13.653,0.104,27.309-0.078,40.959
	c-0.042,3.126,0.831,3.884,3.886,3.844c13.151-0.173,26.308,0.037,39.459-0.149c3.388-0.048,4.804,0.723,4.491,4.349
	c-0.313,3.636-0.285,7.337-0.005,10.979c0.249,3.242-1.077,3.825-4.009,3.81c-21.146-0.113-42.292-0.107-63.438-0.004
	c-2.769,0.014-3.67-0.701-3.662-3.579c0.094-33.967,0.092-67.934,0.003-101.9c-0.008-2.809,0.745-3.753,3.606-3.638
	c5.319,0.213,10.664,0.262,15.978-0.016c3.149-0.164,3.879,0.843,3.842,3.888C673.906,63.629,674,77.45,674,91.271z"/>
<path fill-rule="evenodd" clip-rule="evenodd" fill="#FFFFFF" d="M520,100.793c0,16.646-0.111,33.292,0.089,49.936
	c0.043,3.533-0.89,4.565-4.394,4.353c-5.141-0.313-10.316-0.155-15.475-0.048c-2.309,0.048-3.585-0.229-3.577-3.141
	c0.099-34.289,0.085-68.58,0.018-102.87c-0.005-2.431,0.793-3.13,3.145-3.067c5.489,0.144,10.996,0.257,16.474-0.035
	c3.23-0.173,3.811,0.98,3.787,3.938C519.93,66.835,520,83.813,520,100.793z"/>
<path fill-rule="evenodd" clip-rule="evenodd" fill="#FFFFFF" d="M766,100.86c0,16.479-0.155,32.961,0.11,49.436
	c0.065,4.088-1.225,5.03-4.982,4.778c-4.64-0.311-9.329-0.278-13.974-0.006c-3.323,0.195-4.558-0.535-4.54-4.242
	c0.154-33.624,0.12-67.248,0.038-100.872c-0.008-2.83,0.39-4.222,3.724-4.034c5.31,0.3,10.662,0.309,15.971-0.003
	c3.341-0.196,3.73,1.168,3.711,4.008C765.941,66.902,766,83.882,766,100.86z"/>
<path fill-rule="evenodd" clip-rule="evenodd" fill="#FFFFFF" d="M622.108,268.738c-6.402,8.483-14.053,11.44-23.276,11.192
	c-12.692-0.34-21.821-8.928-22.066-21.662c-0.262-13.659,0.045-27.328-0.137-40.99c-0.044-3.259,1.468-3.447,3.924-3.311
	c2.29,0.128,4.494-0.53,4.43,3.334c-0.212,12.659-0.079,25.326,0.018,37.989c0.043,5.548,1.577,10.529,6.328,13.993
	c10.766,7.848,26.97,1.707,29.78-11.3c1.388-6.419,0.814-12.938,0.876-19.42c0.067-7.165,0.213-14.338-0.067-21.492
	c-0.141-3.588,1.93-3.079,4.085-3.083c2.164-0.005,4.113-0.48,4.081,3.084c-0.174,19.662-0.162,39.326-0.007,58.989
	c0.026,3.313-1.576,3.322-3.953,3.271c-2.284-0.047-4.432,0.174-4.054-3.24C622.287,274.124,622.108,272.11,622.108,268.738z"/>
<path fill-rule="evenodd" clip-rule="evenodd" fill="#FFFFFF" d="M471.003,221.994c4.637-6.603,10.53-9.297,18.221-8.947
	c4.872,0.222,3.193,3.633,3.446,6.124c0.342,3.37-1.876,2.057-3.552,1.905c-9.901-0.892-16.626,4.755-17.383,14.814
	c-0.975,12.954-0.313,25.938-0.371,38.909c-0.014,3.012-0.445,4.363-3.978,4.346c-3.542-0.016-4.396-1.035-4.364-4.494
	c0.175-18.468,0.083-36.939,0.081-55.41c0-2.9-0.895-5.798,4.179-5.728c4.962,0.068,3.557,3.034,3.711,5.561
	C471.052,220.044,471.003,221.021,471.003,221.994z"/>
<path fill-rule="evenodd" clip-rule="evenodd" fill="#A2D2AF" d="M454.227,97.824c-0.791,0.328-2.221,0.169-2.149-0.182
	c0.304-1.482,1.666-1.635,2.987-1.586C454.785,96.646,454.506,97.234,454.227,97.824z"/>
<path fill-rule="evenodd" clip-rule="evenodd" fill="#FFFFFF" d="M476.714,120.566c-1.676-12.128-10.009-20.556-22.487-22.742
	c-0.95-1.172,0.353-1.275,0.838-1.768c9.696-3.216,15.119-10.143,16.33-20.043c1.173-9.592-2.014-17.766-10.009-23.596
	c-6.42-4.681-13.841-6.367-21.656-6.397c-15.33-0.06-30.662,0.081-45.991-0.1c-3.329-0.04-4.114,0.959-4.104,4.175
	c0.113,33.494,0.116,66.988-0.003,100.482c-0.012,3.337,0.623,4.56,4.281,4.513c16.327-0.209,32.659-0.075,48.99-0.101
	c6.087-0.009,11.891-1.435,17.349-4.063C471.971,145.287,478.461,133.212,476.714,120.566z M413.789,64.291
	c2.604-3.013,8.731-0.822,13.323-0.939c3.466-0.088,6.987,0.072,10.409,0.604c6.575,1.021,10.591,5.357,11.151,11.521
	c0.589,6.469-2.641,11.6-8.764,14.08c-5.926,2.4-12.126,1.429-18.225,1.521c-8.684,0.129-8.686,0.032-8.686-8.819
	c0-1.661,0-3.321,0-4.981c0.112-0.001,0.224-0.001,0.335-0.002C413.334,72.815,411.583,66.843,413.789,64.291z M441.461,136.912
	c-8.69,1.904-17.553,0.837-26.34,1.104c-2.379,0.072-2.122-1.469-2.121-2.965c0.003-4.322,0.001-8.645,0.001-12.966
	c0-3.99,0.123-7.984-0.046-11.967c-0.104-2.468,0.449-3.585,3.236-3.484c7.138,0.258,14.307-0.08,21.426,0.388
	c10.079,0.661,15.536,6.297,15.488,15.261C453.065,129.952,449.013,135.258,441.461,136.912z"/>
<g>
	<g>
		<path fill-rule="evenodd" clip-rule="evenodd" fill="#FFFFFF" d="M439.032,213.539c-4.142,0.024-4.12,2.075-3.947,4.962
			c0.117,1.945,0.022,3.904,0.022,7.278c-11.28-16.96-33.259-15.526-42.959-3.378c-9.749,12.209-9.92,35.633,0.051,47.699
			c10.861,13.143,30.952,12.502,41.024-1.285c0.381-0.521,0.447-1.714,1.774-1.144c0,2.792,0.063,5.618-0.012,8.44
			c-0.237,9-3.451,14.516-10.84,16.633c-8.733,2.502-18.098,3.318-24.705-4.055c-3.68-4.105-6.969-3.693-11.313-3.475
			c0.936,5.367,3.796,9.031,8.037,11.748c7.249,4.646,15.305,5.472,23.545,4.431c16.39-2.068,23.289-10.093,23.289-26.56
			c0.001-18.829-0.044-37.658,0.046-56.486C443.061,215.379,443.087,213.516,439.032,213.539z M433.488,255.848
			c-3.026,10.989-11.278,16.999-21.536,16.141c-9.141-0.762-16.586-8.667-17.969-19.202c-0.303-2.301-0.283-4.643-0.412-6.966
			c0.005-4.199,0.551-8.269,2.141-12.201c3.38-8.358,9.412-12.696,17.688-12.961c9.186-0.293,15.091,4.353,18.702,12.269
			C435.477,240.324,435.613,248.129,433.488,255.848z"/>
	</g>
</g>
<path fill-rule="evenodd" clip-rule="evenodd" fill="#FFFFFF" d="M707.848,238.325c-1.535-11.857-9.662-21.638-20.03-24.352
	c-11.621-3.041-21.266,0.575-29.817,11.813c0-3.661-0.215-6.332,0.053-8.954c0.355-3.485-1.81-3.107-4.037-3.165
	c-2.433-0.062-3.99,0.107-3.976,3.354c0.121,26.655,0.085,53.312,0.036,79.968c-0.004,2.183,0.411,3.208,2.948,3.396
	c3.915,0.287,5.587-0.531,5.39-5.017c-0.396-9.008-0.117-18.047-0.117-28.412c7.636,11.402,17.277,14.916,28.968,12.166
	c11.953-2.813,17.789-11.597,20.291-22.892C708.858,250.35,708.62,244.29,707.848,238.325z M699.745,245.803
	c-0.053,5.701-0.608,10.138-2.55,14.271c-3.605,7.674-9.18,12.32-18.163,12.289c-9.009-0.033-14.678-4.766-17.997-12.506
	c-3.683-8.587-3.675-17.471-0.228-26.175c3.562-8.991,10.315-13.32,19.66-12.986c7.945,0.285,14.593,5.565,17.463,14.037
	C699.271,238.686,699.869,242.789,699.745,245.803z"/>
<path fill-rule="evenodd" clip-rule="evenodd" fill="#FFFFFF" d="M559.879,238.732c-1.855-14.154-12.472-24.651-25.802-25.613
	c-15.644-1.129-27.125,6.327-31.545,20.377c-1.943,6.176-1.83,12.511-1.395,18.802c1.045,15.061,12.061,26.568,26.052,27.572
	c16.943,1.215,29.065-7.619,32.349-23.744c0.626-3.074,0.668-6.268,0.927-8.876C560.253,244.035,560.224,241.363,559.879,238.732z
	 M550.246,257.45c-3.241,10.17-9.854,15.023-20.365,14.859c-9.515-0.148-16.27-5.477-18.994-15.326
	c-1.898-6.858-1.921-13.854-0.057-20.719c2.97-10.944,10.367-16.117,21.795-15.565c9.213,0.445,16.484,7.309,18.345,17.483
	c0.507,2.771,0.645,5.608,0.952,8.415C551.693,250.296,551.373,253.915,550.246,257.45z"/>
</svg>
