<?xml version="1.0" encoding="utf-8"?>
<!-- Generator: Adobe Illustrator 20.1.0, SVG Export Plug-In . SVG Version: 6.00 Build 0)  -->
<svg version="1.1" id="Слой_1" xmlns="http://www.w3.org/2000/svg" xmlns:xlink="http://www.w3.org/1999/xlink" x="0px" y="0px"
	 viewBox="0 0 20 17.2" style="enable-background:new 0 0 20 17.2;" xml:space="preserve">
<style type="text/css">
	.st0{fill:#00345C;}
</style>
<path class="st0" d="M20,0.8C20,0.3,19.7,0,19.2,0c-3.1,0-6.1,0-9.2,0C6.9,0,3.9,0,0.8,0C0.3,0,0,0.3,0,0.8C0,2,0,3.1,0,4.3
	c0,4,0,8.1,0,12.1c0,0.6,0.3,0.9,0.8,0.9c6.1,0,12.2,0,18.4,0c0.5,0,0.8-0.3,0.8-0.8C20,11.2,20,6,20,0.8z M1.4,14.5
	c0-3.1,0-6.1,0-9.1c0.1,0,0.1,0.1,0.2,0.1c1.5,1,3,2.1,4.5,3.1c0.1,0.1,0.1,0.2,0,0.3c-1.5,1.8-3,3.6-4.6,5.4
	C1.6,14.4,1.5,14.5,1.4,14.5z M17.8,15.8c-5.2,0-10.3,0-15.5,0c0-0.1,0.1-0.1,0.1-0.2c1.6-2,3.3-3.9,4.9-5.9
	c0.1-0.2,0.2-0.2,0.4-0.1c0.6,0.4,1.2,0.9,1.8,1.3c0.4,0.3,0.6,0.3,1,0c0.6-0.4,1.3-0.9,1.9-1.3c0.1-0.1,0.1-0.1,0.2,0
	c1.7,2,3.4,4,5,6C17.8,15.7,17.8,15.7,17.8,15.8z M18.6,14.5c-0.1,0-0.1-0.1-0.1-0.1c-1.5-1.8-3.1-3.6-4.6-5.5
	c-0.1-0.1-0.1-0.2,0-0.3c1.5-1,3-2.1,4.5-3.1c0,0,0.1-0.1,0.2-0.1C18.6,8.4,18.6,11.4,18.6,14.5z M18.7,1.6c0,0.6,0,1.2,0,1.8
	c0,0.1,0,0.2-0.1,0.3c-2.8,1.9-5.6,3.9-8.3,5.8c-0.1,0.1-0.2,0.1-0.3,0C7.1,7.6,4.3,5.7,1.6,3.7C1.5,3.7,1.4,3.6,1.4,3.5
	c0-0.6,0-1.2,0-1.9c0-0.2,0.1-0.2,0.2-0.2c2.8,0,5.6,0,8.4,0c2.8,0,5.6,0,8.4,0C18.6,1.4,18.7,1.4,18.7,1.6z"/>
</svg>
