<?xml version="1.0" encoding="utf-8"?>
<!-- Generator: Adobe Illustrator 20.1.0, SVG Export Plug-In . SVG Version: 6.00 Build 0)  -->
<svg version="1.1" id="Слой_1" xmlns="http://www.w3.org/2000/svg" xmlns:xlink="http://www.w3.org/1999/xlink" x="0px" y="0px"
	 viewBox="0 0 18 18.1" style="enable-background:new 0 0 18 18.1;" xml:space="preserve">
<style type="text/css">
	.st0{fill:#16365A;}
</style>
<path class="st0" d="M17.4,13.1c-0.9-0.9-1.8-1.8-2.8-2.8c-0.8-0.8-1.9-0.8-2.7,0c-0.4,0.4-0.8,0.8-1.2,1.2c-0.4,0.4-0.4,0.4-1,0.3
	c-2.1-0.3-3.7-2-3.7-4.1c0-0.1,0-0.2,0.1-0.2c0.5-0.5,1-1,1.5-1.5c0.8-0.8,0.8-1.9,0-2.7C6.8,2.4,5.9,1.5,5,0.6
	c-0.8-0.8-1.9-0.8-2.7,0c-0.3,0.3-0.7,0.7-1,1C1,2,0.7,2.3,0.5,2.8C0.1,3.7,0,4.6,0,5.5C0,6.8,0.3,8,0.7,9.2C1.5,11.1,2.6,12.6,4,14
	c1.4,1.5,3.1,2.7,5,3.4c1.7,0.6,3.4,0.9,5.2,0.5c0.9-0.2,1.7-0.6,2.4-1.3c0.3-0.3,0.6-0.6,0.8-0.8C18.2,15,18.2,13.9,17.4,13.1z
	 M16.5,14.8c-0.4,0.4-0.7,0.7-1.1,1.1c-0.4,0.4-0.9,0.5-1.4,0.7c-0.5,0.1-1,0.2-1.5,0.2c-1.6,0-3.1-0.4-4.4-1.2
	C5.5,14,3.5,11.9,2.2,9.2C1.6,7.9,1.3,6.6,1.4,5.3c0-0.5,0.1-1.1,0.3-1.6C1.8,3.2,2,2.8,2.4,2.5C2.7,2.2,3,1.9,3.3,1.5
	c0.2-0.2,0.5-0.2,0.8,0C5,2.5,5.9,3.4,6.8,4.3C7,4.6,7,4.8,6.8,5.1C6.2,5.7,5.6,6.2,5.1,6.8C4.9,6.9,4.8,7.1,4.8,7.3
	c-0.2,2.6,1.3,5.2,4.5,5.9c0.5,0.1,0.9,0.1,1.4,0.1c0.2,0,0.3-0.1,0.5-0.2c0.6-0.6,1.1-1.2,1.7-1.7c0.3-0.3,0.5-0.3,0.8,0
	c0.9,0.9,1.8,1.8,2.7,2.7C16.7,14.3,16.7,14.5,16.5,14.8z"/>
</svg>
