<?xml version="1.0" encoding="utf-8"?>
<!-- Generator: Adobe Illustrator 20.1.0, SVG Export Plug-In . SVG Version: 6.00 Build 0)  -->
<svg version="1.1" id="Слой_1" xmlns="http://www.w3.org/2000/svg" xmlns:xlink="http://www.w3.org/1999/xlink" x="0px" y="0px"
	 viewBox="0 0 20 25" style="enable-background:new 0 0 20 25;" xml:space="preserve">
<style type="text/css">
	.st0{fill:#00345C;}
</style>
<path class="st0" d="M19.8,8c-0.9-4.7-5-8-9.8-8C8.3,0,6.7,0.4,5.2,1.2C2.2,3,0.4,5.6,0.1,9.1c-0.2,1.4,0,2.8,0.5,4.2
	c0.6,1.4,1.4,2.8,2.3,4c1.9,2.7,4.1,5.1,6.5,7.4c0.4,0.4,0.9,0.4,1.4,0c1.6-1.5,3.1-3.2,4.5-4.9c1.3-1.5,2.5-3.1,3.4-4.9
	C19.9,12.8,20.3,10.5,19.8,8z M17.1,14.1c-1,1.7-2.1,3.2-3.3,4.7c-1.2,1.4-2.4,2.7-3.7,4c-0.1,0.1-0.1,0.1-0.2,0
	c-2.1-2.1-4-4.3-5.8-6.7c-0.8-1.1-1.5-2.2-2-3.5C1.3,9.7,1.8,7.1,3.6,4.8c1.6-2,3.8-3,6-3c4.4,0,7.8,2.9,8.5,6.9
	C18.4,10.6,18.1,12.4,17.1,14.1z"/>
<path class="st0" d="M10,5.6c-1.8,0-3.3,1.5-3.3,3.3c0,1.8,1.5,3.3,3.3,3.4c1.8,0,3.3-1.5,3.4-3.3C13.4,7.1,11.9,5.6,10,5.6z
	 M10,10.6c-0.9,0-1.6-0.7-1.6-1.6c0-0.9,0.7-1.6,1.6-1.6c0.9,0,1.6,0.7,1.6,1.6C11.6,9.8,10.9,10.6,10,10.6z"/>
</svg>
